<svg width="155" height="173" viewBox="0 0 155 173" fill="none" xmlns="http://www.w3.org/2000/svg">
<path d="M95.6567 153.917C97.4573 157.681 101.156 166.389 101.549 171.103" stroke="#060640" stroke-width="2.25536" stroke-linecap="round" stroke-linejoin="round"/>
<path d="M105.478 140.167C118.081 146.06 144.369 160.595 148.69 171.594" stroke="#060640" stroke-width="2.25536" stroke-linecap="round" stroke-linejoin="round"/>
<path d="M3.83046 3.65526C13.1604 6.60155 31.8202 17.5028 31.8202 37.5376M31.8202 37.5376C22.9814 39.8292 7.95527 46.7694 18.5619 56.1975C21.8356 57.998 29.0704 56.7867 31.8202 37.5376ZM31.8202 37.5376C50.3164 30.9903 87.7016 28.6005 89.273 71.42C88.2909 88.6067 83.8714 126.81 74.0504 142.131C85.6719 125.108 117.754 89.687 153.109 84.1873M4.70141 15.0277L2 2L15.3012 2.31055" stroke="#060640" stroke-width="2.25536" stroke-linecap="round" stroke-linejoin="round"/>
<path d="M34.2759 4.14648C38.0406 5.61963 45.079 10.923 43.1148 20.3511" stroke="#060640" stroke-width="2.25536" stroke-linecap="round" stroke-linejoin="round"/>
</svg>
