<svg width="669" height="644" viewBox="0 0 669 644" fill="none" xmlns="http://www.w3.org/2000/svg">
<path d="M420.074 470.5C455.291 450.169 483.69 419.856 501.684 383.39C519.678 346.925 526.459 305.943 521.169 265.625C515.879 225.307 498.757 187.462 471.965 156.872C445.174 126.282 409.916 104.32 370.647 93.7617C364.061 91.9896 358.45 87.6741 355.046 81.7643C351.642 75.8546 350.726 68.8347 352.498 62.2492C354.27 55.6636 358.585 50.0517 364.495 46.6481C370.405 43.2445 377.425 42.3278 384.01 44.0999C416.591 52.8236 447.131 67.8906 473.878 88.4376C500.626 108.985 523.057 134.608 539.884 163.839C610.88 286.806 568.75 444.034 445.783 515.029C322.816 586.024 165.588 543.895 94.5924 420.928C77.6916 391.739 66.7166 359.502 62.2963 326.065C57.8759 292.627 60.0972 258.646 68.8327 226.068C70.5908 219.478 74.8945 213.858 80.797 210.441C86.6995 207.025 93.7174 206.094 100.307 207.852C106.896 209.61 112.517 213.914 115.933 219.816C119.349 225.719 120.281 232.736 118.523 239.326C108.032 278.613 109.422 320.128 122.518 358.625C135.614 397.122 159.828 430.873 192.1 455.613C224.372 480.353 263.253 494.972 303.83 497.621C344.407 500.271 384.859 490.833 420.074 470.5V470.5Z" fill="url(#paint0_linear_102_58)" fill-opacity="0.5"/>
<path d="M342.947 336.915C354.757 330.097 363.375 318.866 366.904 305.694C370.434 292.522 368.586 278.487 361.768 266.677C354.949 254.867 343.719 246.249 330.546 242.72C317.374 239.19 303.339 241.038 291.529 247.857C279.72 254.675 271.102 265.906 267.573 279.078C264.043 292.25 265.891 306.285 272.709 318.095C279.528 329.905 290.758 338.522 303.931 342.052C317.103 345.581 331.137 343.733 342.947 336.915Z" fill="url(#paint1_linear_102_58)" fill-opacity="0.5"/>
<path d="M406.301 240.968C414.76 255.614 419.477 272.12 420.033 289.023C420.59 305.927 416.968 322.707 409.489 337.877C402.011 353.047 390.906 366.138 377.159 375.99C363.412 385.843 347.448 392.153 330.679 394.361C313.911 396.569 296.857 394.607 281.028 388.649C265.199 382.692 251.084 372.922 239.933 360.205C228.782 347.489 220.94 332.218 217.101 315.746C213.263 299.275 213.546 282.111 217.926 265.775C218.8 262.512 219.023 259.108 218.582 255.759C218.141 252.41 217.045 249.181 215.356 246.255C213.667 243.33 211.418 240.766 208.738 238.709C206.058 236.653 202.999 235.144 199.737 234.27C193.147 232.504 186.125 233.429 180.217 236.84C177.292 238.529 174.728 240.778 172.671 243.458C170.615 246.137 169.106 249.196 168.232 252.459C160.335 281.928 161.354 313.077 171.16 341.968C180.966 370.858 199.119 396.191 223.323 414.764C247.527 433.337 276.695 444.316 307.138 446.311C337.582 448.307 367.934 441.23 394.355 425.975C420.777 410.721 442.081 387.974 455.575 360.611C469.068 333.249 474.145 302.499 470.162 272.251C466.179 242.003 453.316 213.616 433.2 190.679C413.083 167.741 386.617 151.284 357.147 143.389C353.885 142.516 350.483 142.294 347.135 142.736C343.788 143.178 340.56 144.275 337.636 145.965C334.712 147.654 332.15 149.903 330.095 152.583C328.04 155.263 326.533 158.321 325.66 161.583C324.788 164.845 324.566 168.247 325.008 171.595C325.45 174.942 326.547 178.17 328.236 181.094C329.926 184.018 332.174 186.581 334.854 188.635C337.534 190.69 340.592 192.197 343.854 193.07C356.907 196.542 369.144 202.561 379.862 210.782C390.579 219.002 399.564 229.261 406.301 240.968V240.968Z" fill="url(#paint2_linear_102_58)" fill-opacity="0.5"/>
<defs>
<linearGradient id="paint0_linear_102_58" x1="445.783" y1="515.029" x2="222.646" y2="128.545" gradientUnits="userSpaceOnUse">
<stop stop-color="white"/>
<stop offset="1" stop-color="white" stop-opacity="0"/>
</linearGradient>
<linearGradient id="paint1_linear_102_58" x1="342.947" y1="336.915" x2="291.529" y2="247.857" gradientUnits="userSpaceOnUse">
<stop stop-color="white"/>
<stop offset="1" stop-color="white" stop-opacity="0"/>
</linearGradient>
<linearGradient id="paint2_linear_102_58" x1="394.355" y1="425.975" x2="258.923" y2="191.399" gradientUnits="userSpaceOnUse">
<stop stop-color="white"/>
<stop offset="1" stop-color="white" stop-opacity="0"/>
</linearGradient>
</defs>
</svg>
