<svg width="665" height="723" viewBox="0 0 665 723" fill="none" xmlns="http://www.w3.org/2000/svg">
<path d="M472.48 528.232C512.018 505.407 543.902 471.374 564.104 430.434C584.306 389.494 591.919 343.484 585.98 298.219C580.041 252.953 560.818 210.464 530.739 176.121C500.66 141.777 461.076 117.121 416.988 105.267C409.595 103.277 403.294 98.4321 399.473 91.7972C395.652 85.1624 394.623 77.2812 396.612 69.8875C398.602 62.4939 403.447 56.1934 410.082 52.3722C416.717 48.5509 424.598 47.5218 431.991 49.5113C468.57 59.3054 502.857 76.2213 532.887 99.2894C562.916 122.358 588.099 151.125 606.992 183.942C686.698 321.998 639.4 498.519 501.344 578.225C363.288 657.932 186.767 610.634 107.061 472.578C88.0861 439.807 75.7645 403.615 70.8017 366.074C65.839 328.534 68.3328 290.383 78.1402 253.807C80.1141 246.409 84.9458 240.099 91.5726 236.263C98.1994 232.428 106.078 231.382 113.476 233.356C120.874 235.33 127.185 240.162 131.02 246.789C134.856 253.415 135.901 261.294 133.927 268.692C122.149 312.8 123.71 359.409 138.413 402.63C153.116 445.851 180.301 483.743 216.533 511.519C252.764 539.295 296.416 555.707 341.973 558.682C387.529 561.657 432.944 551.06 472.48 528.232V528.232Z" fill="url(#paint0_linear_42_4313)" fill-opacity="0.5"/>
<path d="M385.89 378.257C399.149 370.602 408.824 357.993 412.787 343.204C416.749 328.416 414.675 312.659 407.02 299.4C399.365 286.141 386.756 276.466 371.968 272.503C357.179 268.541 341.422 270.615 328.163 278.27C314.904 285.925 305.229 298.534 301.267 313.323C297.304 328.111 299.378 343.868 307.034 357.127C314.689 370.386 327.297 380.061 342.086 384.024C356.874 387.986 372.631 385.912 385.89 378.257Z" fill="url(#paint1_linear_42_4313)" fill-opacity="0.5"/>
<path d="M457.017 270.537C466.515 286.98 471.81 305.511 472.435 324.489C473.059 343.467 468.993 362.306 460.597 379.337C452.201 396.368 439.733 411.066 424.3 422.127C408.866 433.188 390.942 440.273 372.116 442.752C353.291 445.231 334.144 443.028 316.373 436.339C298.602 429.65 282.754 418.682 270.235 404.405C257.716 390.128 248.912 372.983 244.602 354.491C240.292 335.998 240.61 316.728 245.527 298.387C246.509 294.724 246.759 290.903 246.264 287.143C245.769 283.383 244.539 279.757 242.642 276.473C240.746 273.188 238.221 270.31 235.213 268.001C232.204 265.692 228.77 263.999 225.106 263.017C217.708 261.035 209.825 262.072 203.192 265.902C199.908 267.798 197.029 270.323 194.72 273.332C192.411 276.341 190.718 279.775 189.736 283.438C180.87 316.523 182.014 351.494 193.023 383.929C204.032 416.364 224.413 444.806 251.587 465.658C278.761 486.51 311.508 498.836 345.687 501.076C379.866 503.317 413.942 495.372 443.606 478.245C473.269 461.119 497.188 435.581 512.337 404.861C527.486 374.141 533.186 339.618 528.714 305.659C524.243 271.699 509.802 239.828 487.217 214.077C464.632 188.325 434.918 169.849 401.832 160.984C398.17 160.005 394.35 159.756 390.592 160.252C386.833 160.748 383.209 161.98 379.926 163.876C376.644 165.773 373.767 168.298 371.46 171.306C369.153 174.315 367.462 177.748 366.482 181.411C365.502 185.073 365.253 188.893 365.749 192.651C366.245 196.41 367.477 200.034 369.373 203.316C371.27 206.599 373.795 209.476 376.804 211.783C379.812 214.089 383.246 215.781 386.908 216.761C401.562 220.659 415.301 227.417 427.334 236.647C439.366 245.876 449.454 257.394 457.017 270.537V270.537Z" fill="url(#paint2_linear_42_4313)" fill-opacity="0.5"/>
<defs>
<linearGradient id="paint0_linear_42_4313" x1="501.344" y1="578.225" x2="250.827" y2="144.318" gradientUnits="userSpaceOnUse">
<stop stop-color="white"/>
<stop offset="1" stop-color="white" stop-opacity="0"/>
</linearGradient>
<linearGradient id="paint1_linear_42_4313" x1="385.89" y1="378.257" x2="328.163" y2="278.27" gradientUnits="userSpaceOnUse">
<stop stop-color="white"/>
<stop offset="1" stop-color="white" stop-opacity="0"/>
</linearGradient>
<linearGradient id="paint2_linear_42_4313" x1="443.606" y1="478.245" x2="291.555" y2="214.886" gradientUnits="userSpaceOnUse">
<stop stop-color="white"/>
<stop offset="1" stop-color="white" stop-opacity="0"/>
</linearGradient>
</defs>
</svg>
