<svg width="1130" height="790" viewBox="0 0 1130 790" fill="none" xmlns="http://www.w3.org/2000/svg">
<path d="M395.72 445.257C408.979 437.602 418.654 424.993 422.616 410.204C426.579 395.416 424.504 379.659 416.849 366.4C409.194 353.141 396.586 343.466 381.797 339.503C367.009 335.541 351.252 337.615 337.993 345.27C324.734 352.925 315.059 365.534 311.096 380.323C307.134 395.111 309.208 410.868 316.863 424.127C324.518 437.386 337.127 447.061 351.915 451.024C366.704 454.986 382.461 452.912 395.72 445.257Z" fill="url(#paint0_linear_56_88)" fill-opacity="0.5"/>
<g filter="url(#filter0_f_56_88)">
<ellipse cx="688.898" cy="367.111" rx="270.5" ry="113" transform="rotate(-30 688.898 367.111)" fill="#100146" fill-opacity="0.41"/>
</g>
<path d="M471.619 595.232C511.156 572.407 543.041 538.374 563.243 497.434C583.444 456.494 591.057 410.484 585.118 365.219C579.18 319.953 559.956 277.464 529.877 243.121C499.799 208.777 460.214 184.121 416.127 172.267C408.733 170.277 402.433 165.432 398.611 158.797C394.79 152.162 393.761 144.281 395.751 136.888C397.74 129.494 402.585 123.193 409.22 119.372C415.855 115.551 423.736 114.522 431.13 116.511C467.709 126.305 501.995 143.221 532.025 166.289C562.055 189.358 587.238 218.125 606.13 250.942C685.837 388.998 638.538 565.519 500.482 645.225C362.426 724.932 185.906 677.634 106.199 539.578C87.2246 506.807 74.9029 470.615 69.9401 433.074C64.9775 395.534 67.4713 357.383 77.2787 320.807C79.2525 313.409 84.0843 307.099 90.7111 303.263C97.3378 299.428 105.217 298.382 112.615 300.356C120.012 302.33 126.323 307.162 130.159 313.789C133.994 320.415 135.04 328.294 133.066 335.692C121.288 379.8 122.849 426.409 137.552 469.63C152.255 512.851 179.44 550.743 215.671 578.519C251.903 606.295 295.555 622.707 341.111 625.682C386.667 628.657 432.083 618.06 471.619 595.232Z" fill="url(#paint1_linear_56_88)" fill-opacity="0.5"/>
<path d="M456.155 337.537C465.653 353.98 470.949 372.511 471.573 391.489C472.198 410.467 468.132 429.306 459.735 446.337C451.339 463.368 438.872 478.066 423.438 489.127C408.004 500.188 390.081 507.273 371.255 509.752C352.429 512.231 333.282 510.028 315.511 503.339C297.74 496.65 281.893 485.682 269.374 471.405C256.855 457.128 248.05 439.983 243.741 421.491C239.431 402.998 239.749 383.728 244.666 365.387C245.647 361.724 245.898 357.903 245.403 354.143C244.908 350.383 243.677 346.757 241.781 343.473C239.885 340.188 237.36 337.31 234.351 335.001C231.342 332.692 227.908 330.999 224.245 330.017C216.847 328.035 208.964 329.072 202.331 332.902C199.046 334.798 196.167 337.323 193.859 340.332C191.55 343.341 189.856 346.775 188.875 350.438C180.008 383.523 181.152 418.494 192.162 450.929C203.171 483.364 223.551 511.806 250.725 532.658C277.899 553.51 310.646 565.836 344.825 568.076C379.005 570.317 413.08 562.372 442.744 545.245C472.408 528.119 496.326 502.581 511.476 471.861C526.625 441.141 532.324 406.618 527.853 372.659C523.381 338.699 508.94 306.828 486.355 281.077C463.77 255.325 434.056 236.849 400.97 227.984C397.308 227.005 393.489 226.756 389.73 227.252C385.972 227.748 382.347 228.98 379.065 230.876C375.782 232.773 372.905 235.298 370.599 238.306C368.292 241.315 366.6 244.748 365.62 248.411C364.64 252.073 364.391 255.893 364.887 259.651C365.384 263.41 366.615 267.034 368.512 270.316C370.409 273.599 372.933 276.476 375.942 278.783C378.95 281.089 382.384 282.781 386.046 283.761C400.701 287.659 414.44 294.417 426.472 303.647C438.504 312.876 448.592 324.394 456.155 337.537Z" fill="url(#paint2_linear_56_88)" fill-opacity="0.5"/>
<defs>
<filter id="filter0_f_56_88" x="247.865" y="0.157715" width="882.065" height="733.906" filterUnits="userSpaceOnUse" color-interpolation-filters="sRGB">
<feFlood flood-opacity="0" result="BackgroundImageFix"/>
<feBlend mode="normal" in="SourceGraphic" in2="BackgroundImageFix" result="shape"/>
<feGaussianBlur stdDeviation="100" result="effect1_foregroundBlur_56_88"/>
</filter>
<linearGradient id="paint0_linear_56_88" x1="395.72" y1="445.257" x2="337.993" y2="345.27" gradientUnits="userSpaceOnUse">
<stop stop-color="white"/>
<stop offset="1" stop-color="white" stop-opacity="0"/>
</linearGradient>
<linearGradient id="paint1_linear_56_88" x1="500.482" y1="645.225" x2="249.966" y2="211.318" gradientUnits="userSpaceOnUse">
<stop stop-color="white"/>
<stop offset="1" stop-color="white" stop-opacity="0"/>
</linearGradient>
<linearGradient id="paint2_linear_56_88" x1="442.744" y1="545.245" x2="290.693" y2="281.886" gradientUnits="userSpaceOnUse">
<stop stop-color="white"/>
<stop offset="1" stop-color="white" stop-opacity="0"/>
</linearGradient>
</defs>
</svg>
