<svg width="17" height="17" viewBox="0 0 17 17" fill="none" xmlns="http://www.w3.org/2000/svg">
<path d="M7.96761 14.904C4.20094 14.904 1.13428 11.8373 1.13428 8.07064C1.13428 4.30397 4.20094 1.2373 7.96761 1.2373C11.7343 1.2373 14.8009 4.30397 14.8009 8.07064C14.8009 11.8373 11.7343 14.904 7.96761 14.904ZM7.96761 2.2373C4.74761 2.2373 2.13428 4.85731 2.13428 8.07064C2.13428 11.284 4.74761 13.904 7.96761 13.904C11.1876 13.904 13.8009 11.284 13.8009 8.07064C13.8009 4.85731 11.1876 2.2373 7.96761 2.2373Z" fill="#00E5CC"/>
<path d="M14.9679 15.5709C14.8412 15.5709 14.7146 15.5243 14.6146 15.4243L13.2812 14.0909C13.0879 13.8976 13.0879 13.5776 13.2812 13.3843C13.4746 13.1909 13.7946 13.1909 13.9879 13.3843L15.3212 14.7176C15.5146 14.9109 15.5146 15.2309 15.3212 15.4243C15.2212 15.5243 15.0946 15.5709 14.9679 15.5709Z" fill="#00E5CC"/>
</svg>
